HIERARCHY
ROOT Hips
{
	OFFSET 0.00000 0.00000 0.00000
	CHANNELS 6 Xposition Yposition Zposition Zrotation Yrotation Xrotation 
	JOINT LHipJoint
	{
		OFFSET 0 0 0
		CHANNELS 3 Zrotation Yrotation Xrotation
		JOINT LeftUpLeg
		{
			OFFSET 1.58895 -1.83665 0.71753
			CHANNELS 3 Zrotation Yrotation Xrotation
			JOINT LeftLeg
			{
				OFFSET 2.50528 -6.88321 0.00000
				CHANNELS 3 Zrotation Yrotation Xrotation
				JOINT LeftFoot
				{
					OFFSET 2.63244 -7.23257 0.00000
					CHANNELS 3 Zrotation Yrotation Xrotation
					JOINT LeftToeBase
					{
						OFFSET 0.23691 -0.65090 1.72750
						CHANNELS 3 Zrotation Yrotation Xrotation
						End Site
						{
							OFFSET 0.00000 -0.00000 0.92561
						}
					}
				}
			}
		}
	}
	JOINT RHipJoint
	{
		OFFSET 0 0 0
		CHANNELS 3 Zrotation Yrotation Xrotation
		JOINT RightUpLeg
		{
			OFFSET -1.51435 -1.83665 0.71753
			CHANNELS 3 Zrotation Yrotation Xrotation
			JOINT RightLeg
			{
				OFFSET -2.54551 -6.99375 0.00000
				CHANNELS 3 Zrotation Yrotation Xrotation
				JOINT RightFoot
				{
					OFFSET -2.66027 -7.30903 0.00000
					CHANNELS 3 Zrotation Yrotation Xrotation
					JOINT RightToeBase
					{
						OFFSET -0.22981 -0.63138 2.03959
						CHANNELS 3 Zrotation Yrotation Xrotation
						End Site
						{
							OFFSET -0.00000 -0.00000 1.07060
						}
					}
				}
			}
		}
	}
	JOINT LowerBack
	{
		OFFSET 0 0 0
		CHANNELS 3 Zrotation Yrotation Xrotation
		JOINT Spine
		{
			OFFSET -0.02651 1.86275 -0.11152
			CHANNELS 3 Zrotation Yrotation Xrotation
			JOINT Spine1
			{
				OFFSET 0.01019 1.86224 0.04087
				CHANNELS 3 Zrotation Yrotation Xrotation
				JOINT Neck
				{
					OFFSET 0 0 0
					CHANNELS 3 Zrotation Yrotation Xrotation
					JOINT Neck1
					{
						OFFSET -0.01926 1.80512 0.08867
						CHANNELS 3 Zrotation Yrotation Xrotation
						JOINT Head
						{
							OFFSET 0.05516 1.76451 -0.38475
							CHANNELS 3 Zrotation Yrotation Xrotation
							End Site
							{
								OFFSET 0.01592 1.82587 -0.14001
							}
						}
					}
				}
				JOINT LeftShoulder
				{
					OFFSET 0 0 0
					CHANNELS 3 Zrotation Yrotation Xrotation
					JOINT LeftArm
					{
						OFFSET 3.47116 1.51376 0.14491
						CHANNELS 3 Zrotation Yrotation Xrotation
						JOINT LeftForeArm
						{
							OFFSET 4.78095 -0.00000 0.00000
							CHANNELS 3 Zrotation Yrotation Xrotation
							JOINT LeftHand
							{
								OFFSET 3.58615 -0.00000 -0.00000
								CHANNELS 3 Zrotation Yrotation Xrotation
								JOINT LeftFingerBase
								{
									OFFSET 0 0 0
									CHANNELS 3 Zrotation Yrotation Xrotation
									JOINT LeftHandIndex1
									{
										OFFSET 0.65981 -0.00000 0.00000
										CHANNELS 3 Zrotation Yrotation Xrotation
										End Site
										{
											OFFSET 0.53196 -0.00000 0.00000
										}
									}
								}
								JOINT LThumb
								{
									OFFSET 0 0 0
									CHANNELS 3 Zrotation Yrotation Xrotation
									End Site
									{
										OFFSET 0.54008 -0.00000 0.54008
									}
								}
							}
						}
					}
				}
				JOINT RightShoulder
				{
					OFFSET 0 0 0
					CHANNELS 3 Zrotation Yrotation Xrotation
					JOINT RightArm
					{
						OFFSET -3.31725 1.61216 0.35156
						CHANNELS 3 Zrotation Yrotation Xrotation
						JOINT RightForeArm
						{
							OFFSET -4.48913 -0.00000 0.00000
							CHANNELS 3 Zrotation Yrotation Xrotation
							JOINT RightHand
							{
								OFFSET -3.70510 -0.00000 0.00000
								CHANNELS 3 Zrotation Yrotation Xrotation
								JOINT RightFingerBase
								{
									OFFSET 0 0 0
									CHANNELS 3 Zrotation Yrotation Xrotation
									JOINT RightHandIndex1
									{
										OFFSET -0.44914 -0.00000 0.00000
										CHANNELS 3 Zrotation Yrotation Xrotation
										End Site
										{
											OFFSET -0.36211 -0.00000 0.00000
										}
									}
								}
								JOINT RThumb
								{
									OFFSET 0 0 0
									CHANNELS 3 Zrotation Yrotation Xrotation
									End Site
									{
										OFFSET -0.36763 -0.00000 0.36763
									}
								}
							}
						}
					}
				}
			}
		}
	}
}
MOTION
Frames: 9
Frame Time: .0083333
-0.6097 18.6575 6.2270 -3.4493 2.2833 0.3426 0.0000 0.0000 0.0000 -11.4543 -9.1128 -0.6345 1.5307 7.8113 22.1425 1.6688 3.2170 -25.7375 8.4881 -16.4668 -54.3023 0.0000 0.0000 0.0000 0.0000 0.0000 0.0000 0.0000 0.0000 0.0000 -0.0000 -0.0000 0.0000 -0.0000 -0.0000 0.0000 0.8931 3.3720 2.5305 1.5454 4.6218 -3.2700 0.7867 2.2956 -4.8529 -11.7172 -8.6483 -6.6416 5.4147 -11.6572 25.1850 2.5297 -5.9631 10.1354 -0.0000 -0.0000 0.0000 8.6865 -37.5395 -38.9073 158.1079 -32.8549 -113.4728 -0.0000 0.0000 -8.5942 17.1706 -47.8315 -12.8992 -7.1250 0.0000 -0.0000 -10.8316 -18.4105 13.8981 -0.0000 -0.0000 0.0000 39.2494 44.5437 20.9892 -126.3846 54.3535 -90.9125 0.0000 -0.0000 -3.7057 -41.1156 -10.3011 8.8712 7.1250 -0.0000 -0.0000 -12.8593 -43.1694 -0.5914
-0.6088 18.6570 6.2322 -3.4280 2.2129 0.3357 0.0000 0.0000 0.0000 -11.4777 -8.9903 -0.6419 1.5318 7.8140 22.1504 1.6734 3.2124 -25.7687 8.5175 -16.4870 -54.4060 0.0000 0.0000 0.0000 0.0000 0.0000 0.0000 0.0000 0.0000 0.0000 -0.0000 -0.0000 0.0000 -0.0000 -0.0000 0.0000 0.9783 3.3552 2.5663 1.4926 4.6034 -3.3364 0.6820 2.2816 -4.9312 -11.7698 -8.6242 -6.7761 5.5155 -11.6409 25.4309 2.5685 -5.9481 10.2591 -0.0000 -0.0000 0.0000 8.8218 -37.5294 -38.8373 158.1029 -32.8605 -113.4701 -0.0000 0.0000 -8.6468 17.0438 -47.7460 -12.7846 -7.1250 0.0000 -0.0000 -10.8700 -18.3018 13.9361 -0.0000 -0.0000 0.0000 38.8896 45.1520 20.4223 -125.1139 54.7856 -89.8771 0.0000 -0.0000 -3.3388 -41.0978 -10.5343 9.0610 7.1250 -0.0000 -0.0000 -12.8724 -43.4631 -0.4970
-0.6089 18.6570 6.2375 -3.4058 2.1520 0.3536 0.0000 0.0000 0.0000 -11.4983 -8.9256 -0.6511 1.5326 7.8158 22.1561 1.6826 3.2114 -25.8347 8.5354 -16.4993 -54.4690 0.0000 0.0000 0.0000 0.0000 0.0000 0.0000 0.0000 0.0000 0.0000 -0.0000 -0.0000 0.0000 -0.0000 -0.0000 0.0000 1.0253 3.3460 2.5446 1.4515 4.5923 -3.3874 0.6141 2.2733 -4.9649 -11.6316 -8.6236 -7.1360 5.3898 -11.6184 25.9203 2.4873 -5.9304 10.4883 0.0000 0.0000 0.0000 8.8961 -37.6113 -38.8102 158.0639 -32.9047 -113.4489 -0.0000 0.0000 -8.5984 17.2359 -47.3793 -12.8597 -7.1250 0.0000 -0.0000 -10.7039 -17.9919 13.6806 0.0000 0.0000 0.0000 38.4638 45.8263 19.8520 -123.8054 55.2076 -88.8053 0.0000 -0.0000 -3.1708 -41.0912 -10.8403 9.3144 7.1250 -0.0000 -0.0000 -12.9051 -43.8506 -0.3726
-0.6095 18.6571 6.2450 -3.4011 2.1026 0.3980 0.0000 0.0000 0.0000 -11.4983 -8.8937 -0.6701 1.5321 7.8147 22.1526 1.6895 3.2054 -25.8816 8.5249 -16.4921 -54.4321 0.0000 0.0000 0.0000 0.0000 0.0000 0.0000 0.0000 0.0000 0.0000 -0.0000 -0.0000 0.0000 -0.0000 -0.0000 0.0000 1.1070 3.3603 2.4598 1.4194 4.6134 -3.4457 0.5379 2.2802 -4.9687 -11.7428 -8.6651 -7.3962 5.4715 -11.6774 26.3484 2.5121 -5.9539 10.7175 0.0000 0.0000 0.0000 8.8730 -37.7381 -38.8315 158.0270 -32.9465 -113.4289 -0.0000 0.0000 -8.5378 17.5157 -47.1394 -13.0256 -7.1250 0.0000 -0.0000 -10.5251 -17.8221 13.4258 0.0000 0.0000 0.0000 38.2502 46.2179 19.3723 -122.5556 55.5896 -87.7765 0.0000 -0.0000 -3.1446 -41.1355 -10.7578 9.2598 7.1250 -0.0000 -0.0000 -12.9364 -43.7525 -0.4054
-0.6097 18.6562 6.2535 -3.4127 2.0837 0.4124 0.0000 0.0000 0.0000 -11.4931 -8.8868 -0.6525 1.5314 7.8131 22.1477 1.6930 3.2243 -25.9156 8.5231 -16.4909 -54.4259 0.0000 0.0000 0.0000 0.0000 0.0000 0.0000 0.0000 0.0000 0.0000 -0.0000 -0.0000 0.0000 -0.0000 -0.0000 0.0000 1.2162 3.3751 2.3482 1.3995 4.6356 -3.4763 0.4617 2.2872 -4.9270 -12.1424 -8.7435 -7.4777 5.7734 -11.8097 26.6056 2.6594 -6.0193 10.8935 0.0000 0.0000 0.0000 8.7892 -37.8475 -38.8363 158.0100 -32.9658 -113.4196 -0.0000 0.0000 -8.5802 17.3249 -47.2966 -12.9113 -7.1250 0.0000 -0.0000 -10.6457 -17.9317 13.5970 0.0000 0.0000 0.0000 38.2425 46.3980 19.0027 -121.3566 55.9375 -86.7852 0.0000 -0.0000 -3.0110 -41.1896 -10.4961 9.0578 7.1250 -0.0000 -0.0000 -12.9540 -43.4279 -0.5117
-0.6089 18.6547 6.2610 -3.3883 2.1151 0.4087 0.0000 0.0000 0.0000 -11.5375 -8.9337 -0.6128 1.5320 7.8143 22.1516 1.6966 3.2367 -25.9467 8.5235 -16.4911 -54.4270 0.0000 0.0000 0.0000 0.0000 0.0000 0.0000 0.0000 0.0000 0.0000 -0.0000 -0.0000 0.0000 -0.0000 -0.0000 0.0000 1.2918 3.3620 2.2655 1.3620 4.6185 -3.5093 0.3867 2.2754 -4.9052 -12.5034 -8.8168 -7.4676 6.0426 -11.9410 26.8062 2.7940 -6.0866 11.0272 0.0000 0.0000 0.0000 8.6617 -37.9667 -38.6984 157.9901 -32.9882 -113.4088 -0.0000 0.0000 -8.6023 17.0621 -47.4779 -12.7460 -7.1250 0.0000 -0.0000 -10.8038 -18.0494 13.8188 0.0000 0.0000 0.0000 38.3858 46.5410 18.8317 -120.3661 56.2116 -85.9634 0.0000 -0.0000 -2.8612 -41.3624 -10.7898 9.3597 7.1250 -0.0000 -0.0000 -13.1556 -43.8268 -0.3880
-0.6090 18.6538 6.2680 -3.3348 2.1630 0.4068 0.0000 0.0000 0.0000 -11.6014 -8.9763 -0.5808 1.5331 7.8170 22.1596 1.7010 3.1978 -25.9602 8.4993 -16.4745 -54.3420 0.0000 0.0000 0.0000 0.0000 0.0000 0.0000 0.0000 0.0000 0.0000 -0.0000 -0.0000 0.0000 -0.0000 -0.0000 0.0000 1.3224 3.3375 2.2088 1.3149 4.5850 -3.5623 0.3253 2.2565 -4.9219 -12.8129 -8.8608 -7.3493 6.3189 -12.0506 26.9194 2.9320 -6.1411 11.1017 0.0000 0.0000 0.0000 8.4472 -38.1193 -38.4125 157.9431 -33.0412 -113.3832 -0.0000 0.0000 -8.5926 17.0854 -47.4293 -12.7542 -7.1250 0.0000 -0.0000 -10.7828 -18.0078 13.7863 0.0000 0.0000 0.0000 38.6329 46.6570 18.7386 -119.5336 56.4330 -85.2705 0.0000 -0.0000 -3.0820 -41.1707 -10.1881 8.7932 7.1250 -0.0000 -0.0000 -12.8963 -43.0333 -0.6373
-0.6113 18.6529 6.2748 -3.3260 2.1955 0.3917 0.0000 0.0000 0.0000 -11.6011 -8.9588 -0.5574 1.5338 7.8187 22.1648 1.6991 3.1812 -25.9391 8.5070 -16.4798 -54.3691 0.0000 0.0000 0.0000 0.0000 0.0000 0.0000 0.0000 0.0000 0.0000 -0.0000 -0.0000 0.0000 -0.0000 -0.0000 0.0000 1.3714 3.3228 2.1515 1.2874 4.5660 -3.6045 0.2734 2.2446 -4.9273 -13.0868 -8.8896 -7.3374 6.5283 -12.1185 27.1202 3.0421 -6.1779 11.2197 0.0000 0.0000 0.0000 8.1821 -38.2814 -38.1374 157.8890 -33.1022 -113.3537 -0.0000 0.0000 -8.6531 17.3116 -47.3038 -12.9025 -7.1250 0.0000 -0.0000 -10.6533 -17.9357 13.6074 0.0000 0.0000 0.0000 38.9054 46.6845 18.8206 -118.9622 56.5802 -84.7940 0.0000 -0.0000 -2.9954 -41.2545 -9.8199 8.5080 7.1250 -0.0000 -0.0000 -12.9262 -42.5756 -0.7875
-0.6147 18.6513 6.2823 -3.3548 2.2286 0.3764 0.0000 0.0000 0.0000 -11.5681 -8.9676 -0.5269 1.5348 7.8211 22.1722 1.6930 3.2320 -25.9188 8.5566 -16.5138 -54.5438 0.0000 0.0000 0.0000 0.0000 0.0000 0.0000 0.0000 0.0000 0.0000 -0.0000 -0.0000 0.0000 -0.0000 -0.0000 0.0000 1.4472 3.3110 2.0741 1.2611 4.5511 -3.6360 0.2092 2.2341 -4.9081 -13.2111 -8.9614 -7.7832 6.5174 -12.1805 27.7080 3.0291 -6.2091 11.5526 0.0000 0.0000 0.0000 7.9818 -38.4285 -37.9902 157.8997 -33.0902 -113.3595 -0.0000 0.0000 -8.5791 17.8506 -47.0905 -13.2718 -7.1250 0.0000 -0.0000 -10.3621 -17.8474 13.2152 0.0000 0.0000 0.0000 39.2317 46.7303 19.0187 -118.6566 56.6574 -84.5389 0.0000 -0.0000 -2.8850 -41.3605 -9.9278 8.6309 7.1250 -0.0000 -0.0000 -13.0391 -42.7278 -0.7448
